<svg width="35" height="35" viewBox="0 0 35 35" fill="none" xmlns="http://www.w3.org/2000/svg">
<path d="M29.1325 12.448C29.1325 11.7932 29.1322 11.3282 29.1024 10.9643C29.0731 10.6053 29.0177 10.383 28.9279 10.2069C28.7478 9.85335 28.4602 9.56581 28.1066 9.38561C27.9306 9.2959 27.7082 9.24 27.3493 9.21067C26.9853 9.18094 26.52 9.1806 25.8651 9.1806H10.1349C9.48013 9.1806 9.01508 9.18095 8.65114 9.21067C8.29225 9.24 8.06986 9.29591 7.89379 9.38561C7.54017 9.56578 7.25268 9.85331 7.07248 10.2069C6.98277 10.383 6.92687 10.6053 6.89755 10.9643C6.86782 11.3282 6.86748 11.7932 6.86748 12.448V20.0821C6.86748 20.737 6.86781 21.2023 6.89755 21.5663C6.92688 21.9251 6.98279 22.1472 7.07248 22.3232C7.25268 22.6768 7.54018 22.9644 7.89379 23.1445C8.06987 23.2342 8.29222 23.2901 8.65114 23.3194C9.01508 23.3491 9.48012 23.3495 10.1349 23.3495H25.8651C26.52 23.3495 26.9853 23.3492 27.3493 23.3194C27.7082 23.2901 27.9306 23.2342 28.1066 23.1445C28.4602 22.9643 28.7478 22.6767 28.9279 22.3232C29.0176 22.1472 29.0731 21.925 29.1024 21.5663C29.1322 21.2023 29.1325 20.737 29.1325 20.0821V12.448ZM30 20.0821C30 20.7226 30.0007 21.2291 29.9674 21.6366C29.9379 21.9975 29.88 22.31 29.7573 22.596L29.7005 22.7171C29.4372 23.2339 29.017 23.6542 28.5001 23.9175C28.1815 24.0799 27.8325 24.1502 27.42 24.1839C27.0125 24.2172 26.5057 24.217 25.8651 24.217H22.5172L27.5598 29.2596C27.7292 29.429 27.7291 29.7035 27.5598 29.8729C27.3904 30.0423 27.1159 30.0423 26.9465 29.8729L21.2905 24.217H18.4339V29.5663C18.4339 29.8058 18.2397 29.9999 18.0002 30C17.7607 30 17.5665 29.8058 17.5665 29.5663V24.217H14.7099L9.05353 29.8729C8.88414 30.0423 8.60958 30.0423 8.4402 29.8729C8.27095 29.7035 8.27086 29.4289 8.4402 29.2596L13.4832 24.217H10.1349C9.49437 24.217 8.98787 24.2172 8.5804 24.1839C8.16783 24.1502 7.81862 24.0799 7.49987 23.9175C6.98297 23.6542 6.5628 23.2339 6.29947 22.7171C6.13704 22.3984 6.06675 22.0491 6.03304 21.6366C5.99975 21.2291 6 20.7226 6 20.0821V12.448C6 11.8075 5.99975 11.301 6.03304 10.8935C6.06675 10.481 6.13705 10.1317 6.29947 9.81299C6.56283 9.29617 6.98303 8.87592 7.49987 8.61259C7.81861 8.45018 8.16784 8.37987 8.5804 8.34616C8.98787 8.31288 9.49437 8.31313 10.1349 8.31313H17.5665V6.43374C17.5665 6.19419 17.7607 6 18.0002 6C18.2397 6.00008 18.4339 6.19424 18.4339 6.43374V8.31313H25.8651C26.5057 8.31313 27.0125 8.31287 27.42 8.34616C27.8325 8.37987 28.1815 8.45025 28.5001 8.61259C29.0169 8.8759 29.4372 9.29617 29.7005 9.81299C29.863 10.1317 29.9337 10.481 29.9674 10.8935C30.0007 11.301 30 11.8075 30 12.448V20.0821Z" fill="black"/>
<path d="M20.8776 15.7622C20.7219 15.6205 20.4776 15.6284 20.332 15.7799L17.8462 18.3676C17.7006 18.5191 17.7087 18.7569 17.8644 18.8987C18.0201 19.0404 18.2644 19.0325 18.41 18.8809L20.896 16.2933C21.0416 16.1417 21.0333 15.904 20.8776 15.7622Z" fill="black"/>
<path d="M18.4271 13.1012C18.2713 12.9595 18.027 12.9676 17.8815 13.1192L14.104 17.0545C13.9584 17.2061 13.9667 17.4439 14.1224 17.5856C14.2782 17.7273 14.5225 17.7192 14.6681 17.5676L18.4456 13.6323C18.5911 13.4807 18.5828 13.2429 18.4271 13.1012Z" fill="black"/>
</svg>
