<svg width="35" height="35" viewBox="0 0 35 35" fill="none" xmlns="http://www.w3.org/2000/svg">
<path d="M30.0399 21.5548H4.96011V24.0836C4.96011 24.4284 5.24261 24.7079 5.59111 24.708H29.4087C29.7573 24.708 30.0399 24.4284 30.0399 24.0836V21.5548ZM15.1298 25.6578C15.2392 26.4161 15.1323 27.1943 14.8148 27.9022C14.6235 28.3286 14.3618 28.7159 14.0438 29.0502H21.4438C21.1259 28.7162 20.8642 28.3291 20.6731 27.903C20.3554 27.1948 20.249 26.4163 20.3591 25.6578H15.1298ZM21.0162 13.2354C21.1973 13.0438 21.5011 13.0338 21.6948 13.2129C21.8884 13.3921 21.8987 13.6926 21.7176 13.8842L18.6261 17.1545C18.4451 17.346 18.1413 17.356 17.9476 17.1769C17.754 16.9977 17.7439 16.6972 17.925 16.5057L21.0162 13.2354ZM17.9689 9.87259C18.1499 9.68102 18.4537 9.67083 18.6474 9.84987C18.8411 10.0289 18.8513 10.3295 18.6704 10.5211L13.9728 15.4947C13.7918 15.6863 13.488 15.6964 13.2943 15.5174C13.1006 15.3383 13.0903 15.0378 13.2713 14.8462L17.9689 9.87259ZM30.0399 7.57402C30.0399 7.22926 29.7572 6.94979 29.4087 6.94979H5.59111C5.24263 6.94982 4.96014 7.22928 4.96011 7.57402V20.605H30.0399V7.57402ZM31 24.0836C31 24.9529 30.2875 25.6578 29.4087 25.6578H21.3321C21.2131 26.2826 21.2877 26.9315 21.5507 27.5178C21.8487 28.1822 22.3696 28.723 23.0235 29.0502H25.4758C25.7409 29.0502 25.9558 29.2628 25.9559 29.5251C25.9559 29.7874 25.7409 30 25.4758 30H9.52404C9.25895 30 9.04399 29.7874 9.04399 29.5251C9.04401 29.2629 9.25896 29.0502 9.52404 29.0502H12.4661C13.1192 28.7222 13.6393 28.1812 13.9372 27.517C14.2 26.931 14.275 26.2825 14.1569 25.6578H5.59111C4.71236 25.6577 4 24.9529 4 24.0836V7.57402C4.00003 6.70473 4.71238 6.00003 5.59111 6H29.4087C30.2875 6 31 6.70471 31 7.57402V24.0836Z" fill="black"/>
</svg>
