<svg width="35" height="35" viewBox="0 0 35 35" fill="none" xmlns="http://www.w3.org/2000/svg">
<path d="M29.6003 18.2559C29.6003 17.5312 29.5995 17.0162 29.5666 16.6134C29.5341 16.2164 29.4727 15.9701 29.3734 15.7753C29.1741 15.3841 28.8554 15.0663 28.4641 14.8669C28.2692 14.7676 28.0231 14.7062 27.6259 14.6737C27.2232 14.6409 26.7087 14.64 25.9844 14.64H8.57594C7.85118 14.64 7.33623 14.6408 6.93344 14.6737C6.5364 14.7062 6.29013 14.7676 6.09531 14.8669C5.70422 15.0662 5.38623 15.3842 5.18688 15.7753C5.08761 15.9701 5.02621 16.2164 4.99375 16.6134C4.96084 17.0162 4.96 17.5312 4.96 18.2559V25.4241C4.96 26.1488 4.96084 26.6638 4.99375 27.0666C5.02621 27.4636 5.08761 27.7099 5.18688 27.9047C5.38625 28.2958 5.70425 28.6138 6.09531 28.8131C6.29012 28.9124 6.5364 28.9738 6.93344 29.0062C7.33623 29.0392 7.85119 29.04 8.57594 29.04H25.9844C26.7087 29.04 27.2232 29.0391 27.6259 29.0062C28.0231 28.9738 28.2692 28.9124 28.4641 28.8131C28.8553 28.6138 29.1741 28.2959 29.3734 27.9047L29.4409 27.7472C29.5017 27.5772 29.5422 27.3644 29.5666 27.0666C29.5995 26.6638 29.6003 26.1488 29.6003 25.4241V18.2559ZM9.61281 23.9203C9.8779 23.9203 10.0928 24.1352 10.0928 24.4003C10.0926 24.6653 9.8778 24.8803 9.61281 24.8803H9.59969C9.33484 24.8801 9.11986 24.6652 9.11969 24.4003C9.11969 24.1353 9.33473 23.9205 9.59969 23.9203H9.61281ZM19.84 23.9203C20.1051 23.9203 20.32 24.1352 20.32 24.4003C20.3198 24.6653 20.105 24.8803 19.84 24.8803H14.7203C14.4553 24.8803 14.2405 24.6653 14.2403 24.4003C14.2403 24.1352 14.4552 23.9203 14.7203 23.9203H19.84ZM24.9728 23.9203C25.2379 23.9203 25.4528 24.1352 25.4528 24.4003C25.4526 24.6653 25.2378 24.8803 24.9728 24.8803H24.9597C24.6948 24.8801 24.4799 24.6652 24.4797 24.4003C24.4797 24.1353 24.6947 23.9205 24.9597 23.9203H24.9728ZM9.61281 18.7997C9.8778 18.7997 10.0926 19.0147 10.0928 19.2797C10.0928 19.5448 9.8779 19.7597 9.61281 19.7597H9.59969C9.33473 19.7595 9.11969 19.5447 9.11969 19.2797C9.11986 19.0148 9.33484 18.7999 9.59969 18.7997H9.61281ZM14.7325 18.7997C14.9975 18.7997 15.2123 19.0147 15.2125 19.2797C15.2125 19.5448 14.9976 19.7597 14.7325 19.7597H14.7203C14.4552 19.7597 14.2403 19.5448 14.2403 19.2797C14.2405 19.0147 14.4553 18.7997 14.7203 18.7997H14.7325ZM19.8531 18.7997C20.118 18.7999 20.333 19.0148 20.3331 19.2797C20.3331 19.5447 20.1181 19.7595 19.8531 19.7597H19.84C19.5749 19.7597 19.36 19.5448 19.36 19.2797C19.3602 19.0147 19.575 18.7997 19.84 18.7997H19.8531ZM24.9728 18.7997C25.2378 18.7997 25.4526 19.0147 25.4528 19.2797C25.4528 19.5448 25.2379 19.7597 24.9728 19.7597H24.9597C24.6947 19.7595 24.4797 19.5447 24.4797 19.2797C24.4799 19.0148 24.6948 18.7999 24.9597 18.7997H24.9728ZM30.5603 25.4241C30.5603 26.1329 30.5606 26.6934 30.5237 27.1444C30.4864 27.601 30.4082 27.9879 30.2284 28.3406C29.937 28.9124 29.4718 29.3777 28.9 29.6691C28.5474 29.8487 28.161 29.9261 27.7047 29.9634C27.2538 30.0003 26.6931 30 25.9844 30H8.57594C7.86708 30 7.30656 30.0003 6.85562 29.9634C6.39928 29.9262 6.01292 29.8486 5.66031 29.6691C5.0883 29.3777 4.62238 28.9125 4.33094 28.3406C4.15119 27.9879 4.07387 27.6009 4.03656 27.1444C3.99973 26.6934 4 26.1329 4 25.4241V18.2559C4 17.5471 3.99973 16.9866 4.03656 16.5356C4.07387 16.0791 4.15119 15.6921 4.33094 15.3394C4.62239 14.7675 5.08836 14.3023 5.66031 14.0109C6.01292 13.8314 6.39928 13.7538 6.85562 13.7166C7.30656 13.6797 7.86708 13.68 8.57594 13.68H11.68V9.04031C11.68 8.77522 11.8949 8.56031 12.16 8.56031H21.9203V6.48C21.9203 6.2149 22.1352 6 22.4003 6C22.6653 6.00017 22.8803 6.21501 22.8803 6.48V9.04031C22.8801 9.30516 22.6652 9.52014 22.4003 9.52031H12.64V13.68H25.9844C26.6931 13.68 27.2538 13.6797 27.7047 13.7166C28.1611 13.7539 28.5474 13.8313 28.9 14.0109C29.4717 14.3022 29.9361 14.7677 30.2275 15.3394C30.4073 15.6921 30.4864 16.079 30.5237 16.5356C30.5606 16.9866 30.5603 17.5471 30.5603 18.2559V25.4241Z" fill="black"/>
</svg>
