<svg width="35" height="35" viewBox="0 0 35 35" fill="none" xmlns="http://www.w3.org/2000/svg">
<path d="M2.5 26.9492C2.5 26.8622 2.5003 26.808 2.50195 26.7549C2.52646 25.9629 2.83281 25.206 3.36621 24.6201C3.40166 24.5813 3.43964 24.5419 3.5 24.4795L5.82227 22.082V11.6475C5.82227 10.3307 5.82081 9.29235 5.92969 8.48242C6.0405 7.65823 6.27322 6.99547 6.79492 6.47363C7.31674 5.95181 7.97951 5.71827 8.80371 5.60742C9.61364 5.49853 10.6519 5.5 11.9688 5.5C12.2449 5.5 12.4688 5.72386 12.4688 6C12.4688 6.27614 12.2449 6.5 11.9688 6.5C10.6238 6.5 9.66528 6.50081 8.9375 6.59863C8.22406 6.69455 7.80706 6.87555 7.50195 7.18066C7.19703 7.48571 7.0168 7.90216 6.9209 8.61523C6.82304 9.34306 6.82227 10.3023 6.82227 11.6475V21.7861H18.5293C18.8054 21.7861 19.0293 22.01 19.0293 22.2861C19.0291 22.5621 18.8053 22.7861 18.5293 22.7861H6.5332L4.21875 25.1748C4.15371 25.242 4.12872 25.2685 4.10547 25.2939L4.10449 25.293C3.7317 25.7026 3.51808 26.2326 3.50098 26.7861C3.49992 26.8201 3.5 26.8562 3.5 26.9492C3.5 27.1675 3.50051 27.254 3.50488 27.3232C3.5788 28.4909 4.50913 29.4212 5.67676 29.4951C5.74588 29.4995 5.83247 29.5 6.05078 29.5H28.1846C28.4029 29.5 28.4895 29.4995 28.5586 29.4951C29.7263 29.4212 30.6566 28.4909 30.7305 27.3232C30.7349 27.2541 30.7354 27.1675 30.7354 26.9492L30.7344 26.7861C30.7173 26.2325 30.5029 25.7026 30.1299 25.293L30.0166 25.1748L27.7021 22.7861H24.2266C23.9507 22.786 23.7268 22.562 23.7266 22.2861C23.7266 22.0101 23.9506 21.7863 24.2266 21.7861H27.4131V11.6475C27.4131 10.3023 27.4123 9.34306 27.3145 8.61523C27.2185 7.90217 27.0383 7.48571 26.7334 7.18066C26.4283 6.87555 26.0113 6.69455 25.2979 6.59863C24.5701 6.50081 23.6116 6.5 22.2666 6.5H17.1172C16.8413 6.49975 16.6172 6.27599 16.6172 6C16.6172 5.72401 16.8413 5.50025 17.1172 5.5H22.2666C23.5834 5.5 24.6217 5.49853 25.4316 5.60742C26.2558 5.71827 26.9186 5.95182 27.4404 6.47363C27.9621 6.99547 28.1949 7.65823 28.3057 8.48242C28.4145 9.29235 28.4131 10.3307 28.4131 11.6475V22.082L30.7344 24.4795L30.8691 24.6201L31.0586 24.8477C31.4747 25.3956 31.7118 26.0614 31.7334 26.7539C31.7351 26.8074 31.7354 26.8623 31.7354 26.9492C31.7354 27.1519 31.7354 27.2771 31.7285 27.3857C31.623 29.0563 30.2917 30.3876 28.6211 30.4932C28.5124 30.5 28.3873 30.5 28.1846 30.5H6.05078C5.8481 30.5 5.72291 30.5 5.61426 30.4932C3.9438 30.3876 2.61237 29.0563 2.50684 27.3857C2.49999 27.2771 2.5 27.1521 2.5 26.9492Z" fill="black"/>
<path d="M20.6468 25.9706C20.923 25.9706 21.1468 26.1944 21.1468 26.4706C21.1468 26.7467 20.923 26.9706 20.6468 26.9706H13.5882C13.3121 26.9706 13.0882 26.7467 13.0882 26.4706C13.0882 26.1944 13.3121 25.9706 13.5882 25.9706H20.6468Z" fill="black"/>
<path d="M18.1765 9.88235C18.1765 10.4671 17.7024 10.9412 17.1177 10.9412C16.5329 10.9412 16.0588 10.4671 16.0588 9.88235C16.0588 9.29759 16.5329 8.82353 17.1177 8.82353C17.7024 8.82353 18.1765 9.29759 18.1765 9.88235Z" fill="black"/>
<path d="M17.176 9.88212C17.1759 9.84976 17.1498 9.82353 17.1174 9.82353C17.0851 9.82365 17.059 9.84983 17.0588 9.88212C17.0588 9.91452 17.085 9.94059 17.1174 9.94072L17.1177 10.9412C16.5329 10.9412 16.0588 10.4671 16.0588 9.88235C16.0588 9.29759 16.5329 8.82353 17.1177 8.82353C17.7024 8.82353 18.1765 9.29759 18.1765 9.88235C18.1765 10.4671 17.7024 10.9412 17.1177 10.9412L17.1174 9.94072C17.1499 9.94072 17.176 9.9146 17.176 9.88212Z" fill="black"/>
</svg>
